<svg width="186" height="20" viewBox="0 0 186 20" fill="none" xmlns="http://www.w3.org/2000/svg">
<path d="M1.9 13H1.41561e-07V0.5H1.9V5.95H8.325V0.5H10.225V13H8.325V7.3H1.9V13ZM15.7084 4.575L13.9834 4.025C14.2667 2.75833 14.8584 1.81667 15.7584 1.2C16.6584 0.566666 17.8084 0.249999 19.2084 0.249999C20.8084 0.249999 21.9917 0.583332 22.7584 1.25C23.5251 1.9 23.9084 2.9 23.9084 4.25V11.45H25.9834V13H21.8584L22.0084 11.425V9.75L20.3334 12.25C19.9167 12.5833 19.4334 12.8333 18.8834 13C18.3501 13.15 17.8001 13.225 17.2334 13.225C16.2501 13.225 15.4334 12.925 14.7834 12.325C14.1334 11.725 13.8084 10.8833 13.8084 9.8C13.8084 8.75 14.1167 8 14.7334 7.55C15.3667 7.08333 16.1084 6.73333 16.9584 6.5C17.8251 6.26667 18.7251 6.05833 19.6584 5.875C20.6084 5.69167 21.3917 5.35 22.0084 4.85V4.325C22.0084 3.50833 21.7667 2.86667 21.2834 2.4C20.8167 1.91667 20.0834 1.675 19.0834 1.675C18.0334 1.675 17.2667 1.91667 16.7834 2.4C16.3001 2.86667 15.9417 3.59167 15.7084 4.575ZM15.8334 9.525C15.8334 10.2417 16.0334 10.8 16.4334 11.2C16.8501 11.5833 17.3667 11.775 17.9834 11.775C18.8001 11.775 19.5417 11.5333 20.2084 11.05C20.8917 10.5667 21.4917 9.76667 22.0084 8.65V5.2C21.5584 5.73333 20.9834 6.125 20.2834 6.375C19.5834 6.60833 18.9001 6.84167 18.2334 7.075C17.5834 7.29167 17.0167 7.575 16.5334 7.925C16.0667 8.275 15.8334 8.80833 15.8334 9.525ZM28.108 6.75C28.108 5.8 28.2663 4.925 28.583 4.125C28.8997 3.325 29.333 2.64167 29.883 2.075C30.433 1.50833 31.083 1.06667 31.833 0.75C32.5997 0.416666 33.4163 0.249999 34.283 0.249999C35.6163 0.249999 36.7913 0.616666 37.808 1.35C38.8413 2.08333 39.4913 3.06667 39.758 4.3L38.008 4.975C37.7913 3.825 37.3413 2.96667 36.658 2.4C35.9913 1.81667 35.1663 1.525 34.183 1.525C33.033 1.525 32.083 1.99167 31.333 2.925C30.5997 3.84167 30.233 5.11667 30.233 6.75C30.233 8.4 30.6163 9.68333 31.383 10.6C32.1497 11.5 33.0913 11.95 34.208 11.95C35.208 11.95 36.033 11.65 36.683 11.05C37.333 10.4333 37.7747 9.55 38.008 8.4L39.758 9.075C39.508 10.3417 38.8663 11.3583 37.833 12.125C36.8163 12.875 35.633 13.25 34.283 13.25C33.4163 13.25 32.5997 13.0917 31.833 12.775C31.083 12.4417 30.433 11.9917 29.883 11.425C29.333 10.8583 28.8997 10.175 28.583 9.375C28.2663 8.575 28.108 7.7 28.108 6.75ZM48.0967 13H46.1967V1.85H41.6467V0.5H52.6467V1.85H48.0967V13ZM56.3578 4.575L54.6328 4.025C54.9161 2.75833 55.5078 1.81667 56.4078 1.2C57.3078 0.566666 58.4578 0.249999 59.8578 0.249999C61.4578 0.249999 62.6411 0.583332 63.4078 1.25C64.1745 1.9 64.5578 2.9 64.5578 4.25V11.45H66.6328V13H62.5078L62.6578 11.425V9.75L60.9828 12.25C60.5661 12.5833 60.0828 12.8333 59.5328 13C58.9995 13.15 58.4495 13.225 57.8828 13.225C56.8995 13.225 56.0828 12.925 55.4328 12.325C54.7828 11.725 54.4578 10.8833 54.4578 9.8C54.4578 8.75 54.7661 8 55.3828 7.55C56.0161 7.08333 56.7578 6.73333 57.6078 6.5C58.4745 6.26667 59.3745 6.05833 60.3078 5.875C61.2578 5.69167 62.0411 5.35 62.6578 4.85V4.325C62.6578 3.50833 62.4161 2.86667 61.9328 2.4C61.4661 1.91667 60.7328 1.675 59.7328 1.675C58.6828 1.675 57.9161 1.91667 57.4328 2.4C56.9495 2.86667 56.5911 3.59167 56.3578 4.575ZM56.4828 9.525C56.4828 10.2417 56.6828 10.8 57.0828 11.2C57.4995 11.5833 58.0161 11.775 58.6328 11.775C59.4495 11.775 60.1911 11.5333 60.8578 11.05C61.5411 10.5667 62.1411 9.76667 62.6578 8.65V5.2C62.2078 5.73333 61.6328 6.125 60.9328 6.375C60.2328 6.60833 59.5495 6.84167 58.8828 7.075C58.2328 7.29167 57.6661 7.575 57.1828 7.925C56.7161 8.275 56.4828 8.80833 56.4828 9.525ZM79.6027 9.475C79.6027 10.6083 79.2027 11.4833 78.4027 12.1C77.6027 12.7 76.3777 13 74.7277 13H69.6777V0.5H74.5027C76.0861 0.5 77.2277 0.775 77.9277 1.325C78.6277 1.875 78.9777 2.61667 78.9777 3.55C78.9777 4.15 78.8111 4.70833 78.4777 5.225C78.1611 5.725 77.6111 6.125 76.8277 6.425C77.8277 6.675 78.5361 7.06667 78.9527 7.6C79.3861 8.13333 79.6027 8.75833 79.6027 9.475ZM74.5527 1.85H71.5777V5.975H74.7277C75.4444 5.975 76.0111 5.775 76.4277 5.375C76.8611 4.95833 77.0777 4.44167 77.0777 3.825C77.0777 3.175 76.8694 2.68333 76.4527 2.35C76.0361 2.01667 75.4027 1.85 74.5527 1.85ZM74.7527 7H71.5777V11.65H74.6527C75.6527 11.65 76.4111 11.4667 76.9277 11.1C77.4444 10.7333 77.7027 10.15 77.7027 9.35C77.7027 8.63333 77.4444 8.06667 76.9277 7.65C76.4277 7.21667 75.7027 7 74.7527 7ZM84.6148 13H82.7148V0.5H84.6148V5.95H91.0398V0.5H92.9398V13H91.0398V7.3H84.6148V13ZM98.8482 13H96.9482V0.5H98.8482V10.575L105.623 0.5H107.523V13H105.623V2.925L98.8482 13ZM119.898 13L113.423 7.075V13H111.523V0.5H113.423V6.125L119.523 0.5H121.823L115.298 6.45L122.323 13H119.898ZM126.802 13H124.902V0.5H126.802V10.575L133.577 0.5H135.477V13H133.577V2.925L126.802 13ZM141.603 13H139.153V10.6H141.603V13ZM147.188 13H145.288V0.5H155.313V13H153.413V1.85H147.188V13ZM165.877 13.25C164.71 13.25 163.702 12.8917 162.852 12.175C162.018 11.4417 161.468 10.4 161.202 9.05V19.25H159.302V0.5H161.202V4.4C161.485 3.05 162.035 2.025 162.852 1.325C163.685 0.608332 164.677 0.249999 165.827 0.249999C166.493 0.249999 167.143 0.383332 167.777 0.65C168.41 0.916666 168.968 1.31667 169.452 1.85C169.935 2.36667 170.318 3.03333 170.602 3.85C170.902 4.66667 171.052 5.625 171.052 6.725C171.052 7.825 170.902 8.78333 170.602 9.6C170.318 10.4167 169.935 11.1 169.452 11.65C168.985 12.1833 168.435 12.5833 167.802 12.85C167.185 13.1167 166.543 13.25 165.877 13.25ZM168.952 6.75C168.952 5.88333 168.843 5.13333 168.627 4.5C168.41 3.85 168.127 3.31667 167.777 2.9C167.427 2.46667 167.01 2.15 166.527 1.95C166.06 1.73333 165.568 1.625 165.052 1.625C163.952 1.625 163.035 2.05833 162.302 2.925C161.585 3.79167 161.227 5.06667 161.227 6.75C161.227 8.43333 161.593 9.71667 162.327 10.6C163.06 11.4833 164.002 11.925 165.152 11.925C166.168 11.925 167.052 11.5 167.802 10.65C168.568 9.78333 168.952 8.48333 168.952 6.75ZM179.79 0.249999C180.64 0.249999 181.432 0.408332 182.165 0.724999C182.915 1.04167 183.565 1.49167 184.115 2.075C184.682 2.64167 185.124 3.325 185.44 4.125C185.757 4.925 185.915 5.8 185.915 6.75C185.915 7.7 185.757 8.575 185.44 9.375C185.124 10.175 184.69 10.8667 184.14 11.45C183.59 12.0167 182.94 12.4583 182.19 12.775C181.44 13.0917 180.64 13.25 179.79 13.25C178.94 13.25 178.14 13.0917 177.39 12.775C176.64 12.4583 175.99 12.0167 175.44 11.45C174.89 10.8667 174.449 10.175 174.115 9.375C173.799 8.575 173.64 7.7 173.64 6.75C173.64 5.8 173.799 4.925 174.115 4.125C174.449 3.325 174.89 2.64167 175.44 2.075C175.99 1.49167 176.64 1.04167 177.39 0.724999C178.14 0.408332 178.94 0.249999 179.79 0.249999ZM179.815 1.55C178.632 1.55 177.657 2 176.89 2.9C176.14 3.78333 175.765 5.06667 175.765 6.75C175.765 8.31667 176.14 9.575 176.89 10.525C177.657 11.475 178.632 11.95 179.815 11.95C181.015 11.95 181.974 11.475 182.69 10.525C183.424 9.575 183.79 8.31667 183.79 6.75C183.79 5.06667 183.424 3.78333 182.69 2.9C181.974 2 181.015 1.55 179.815 1.55Z" fill="#224CFF"/>
</svg>
