<svg width="357" height="65" viewBox="0 0 357 65" fill="none" xmlns="http://www.w3.org/2000/svg">
<path d="M69.0179 41.7668C69.2769 52.5787 46.2927 59.0787 32.8906 64.9351C32.8906 64.9351 59.9537 58.8856 69.5358 50.4549C75.6218 45.1134 74.9743 31.148 59.1768 33.3361C59.0473 33.3361 58.6588 33.9153 58.5293 33.9153C58.5293 33.9153 68.8884 34.6876 69.0179 41.7668Z" fill="#224CFF"/>
<path d="M16.8349 21.5594C15.6695 21.2376 14.3099 20.8515 12.8207 20.5297L12.3675 18.6634C12.3675 18.6634 42.2794 32.9505 74.3925 1.15842C75.0399 0.514851 75.5579 0 75.5579 0C75.5579 0 75.1694 1.80198 75.2341 1.73762C75.2341 1.73762 73.8745 2.70297 72.1912 4.95544C69.5367 8.55941 66.9469 15.4455 71.2847 28.5099L69.8604 29.4752C69.8604 29.4752 68.8245 20.5941 64.2276 23.297C61.7026 24.7772 60.343 33.401 60.343 33.401L58.2712 33.9802C58.2712 33.9802 65.2635 14.3515 53.6096 17.505C43.1858 20.3366 38.2652 28.896 34.8985 64.2921C34.8985 64.5495 32.8914 64.9356 32.8914 64.9356C32.8914 64.9356 35.8697 45.6287 27.0645 46.0792C19.8779 46.401 7.31749 64.4208 7.31749 64.4208H4.46875C4.53349 64.4208 38.4594 27.4158 16.8349 21.5594Z" fill="#224CFF"/>
<path d="M34.1857 19.8219C36.8402 19.8219 39.6242 17.3764 40.4012 14.3516C41.1781 11.3269 39.7537 8.88135 37.0992 8.88135C34.4447 8.88135 31.6607 11.3269 30.8838 14.3516C30.0421 17.3764 31.5312 19.8219 34.1857 19.8219Z" fill="#224CFF"/>
<path d="M69.0179 41.7668C69.2769 52.5787 46.2927 59.0787 32.8906 64.9351C32.8906 64.9351 59.9537 58.8856 69.5358 50.4549C75.6218 45.1134 74.9743 31.148 59.1768 33.3361C59.0473 33.3361 58.6588 33.9153 58.5293 33.9153C58.5293 33.9153 68.8884 34.6876 69.0179 41.7668Z" fill="#224CFF"/>
<path d="M16.8349 21.5594C15.6695 21.2376 14.3099 20.8515 12.8207 20.5297L12.3675 18.6634C12.3675 18.6634 42.2794 32.9505 74.3925 1.15842C75.0399 0.514851 75.4931 0 75.4931 0C75.4931 0 75.1046 1.80198 75.1694 1.73762C75.1694 1.73762 73.8098 2.70297 72.1264 4.95544C69.4719 8.55941 66.8821 15.4455 71.22 28.5099L69.7956 29.4752C69.7956 29.4752 68.7597 20.5941 64.1629 23.297C61.6379 24.7772 60.2782 33.401 60.2782 33.401L58.2712 33.9802C58.2712 33.9802 65.2635 14.3515 53.6096 17.505C43.2505 20.401 38.33 28.896 34.8985 64.3564C34.8985 64.6139 32.8914 65 32.8914 65C32.8914 65 35.8697 45.6931 27.0645 46.1436C19.8779 46.4653 7.31749 64.4851 7.31749 64.4851H4.46875C4.53349 64.4208 38.4594 27.4158 16.8349 21.5594Z" fill="#224CFF"/>
<path d="M34.1857 19.8219C36.8402 19.8219 39.6242 17.3764 40.4012 14.3516C41.1781 11.3269 39.7537 8.88135 37.0992 8.88135C34.4447 8.88135 31.6607 11.3269 30.8838 14.3516C30.0421 17.3764 31.5312 19.8219 34.1857 19.8219Z" fill="#224CFF"/>
<path d="M61.5083 9.52464C63.5153 8.75236 64.875 6.43553 64.5512 4.37612C64.2275 2.25236 62.2852 1.22266 60.2781 1.93058C58.2711 2.70286 56.9114 5.01969 57.2352 7.07909C57.5589 9.20286 59.4365 10.2969 61.5083 9.52464Z" fill="#224CFF"/>
<path d="M3.23782 63.0044C3.23782 63.9054 2.5255 64.6133 1.61891 64.6133C0.712321 64.6133 0 63.9054 0 63.0044C0 62.1034 0.712321 61.3955 1.61891 61.3955C2.5255 61.3955 3.23782 62.1034 3.23782 63.0044ZM0.19427 63.0044C0.19427 63.8411 0.841834 64.4846 1.61891 64.4846C2.46075 64.4846 3.04355 63.8411 3.04355 63.0044C3.04355 62.1678 2.46075 61.5242 1.61891 61.5242C0.777078 61.5242 0.19427 62.1678 0.19427 63.0044ZM1.16562 62.9401H1.55416C1.81318 62.9401 2.13696 62.9401 2.13696 62.5539C2.13696 62.2321 1.87794 62.1678 1.68367 62.1678H1.16562V62.9401ZM1.0361 62.0391H1.74843C2.20172 62.0391 2.39599 62.2321 2.39599 62.5539C2.39599 62.8757 2.20172 63.0044 1.87794 63.0688L2.46075 63.9054H2.26648L1.68367 63.0688H1.16562V63.9054H1.0361V62.0391Z" fill="#224CFF"/>
<path d="M90.7744 35.5248C91.0334 35.5892 91.2924 35.5892 91.6809 35.5892C92.7815 35.5892 93.7527 35.1387 93.7527 34.0446C93.7527 32.9506 92.7815 32.5001 91.5514 32.5001H90.7097V35.5248H90.7744ZM90.7744 30.6981H91.5514C92.8463 30.6981 93.4937 30.1833 93.4937 29.3466C93.4937 28.51 92.8463 28.1239 91.7456 28.1239C91.2276 28.1239 90.9039 28.1239 90.7097 28.1882V30.6981H90.7744ZM88.3789 26.6437C89.0263 26.5149 90.2565 26.3862 91.4866 26.3862C92.9757 26.3862 93.8822 26.5149 94.6591 26.9654C95.436 27.3516 95.954 28.1239 95.954 29.0892C95.954 30.0545 95.3713 30.8912 94.2059 31.3417C95.436 31.6635 96.3424 32.6288 96.3424 33.9803C96.3424 34.9456 95.8892 35.7179 95.2418 36.2328C94.4649 36.8763 93.17 37.1981 91.0334 37.1981C89.868 37.1981 88.9616 37.1338 88.3789 37.0694V26.6437Z" fill="#224CFF"/>
<path d="M98.4733 29.4116H100.869V37.1987H98.4733V29.4116ZM99.7036 28.3819C98.8618 28.3819 98.3438 27.8027 98.3438 27.0947C98.3438 26.3868 98.8618 25.8076 99.7036 25.8076C100.545 25.8076 101.064 26.3868 101.064 27.0947C101.064 27.8027 100.545 28.3819 99.7036 28.3819Z" fill="#224CFF"/>
<path d="M108.382 32.5649C108.382 32.4362 108.382 32.2431 108.317 32.1144C108.123 31.4708 107.669 31.0203 107.022 31.0203C106.116 31.0203 105.403 31.7926 105.403 33.2085C105.403 34.3669 105.986 35.2679 106.957 35.2679C107.605 35.2679 108.058 34.8817 108.252 34.3025C108.317 34.1094 108.317 33.852 108.317 33.659V32.5649H108.382ZM110.777 36.1045C110.777 37.5847 110.453 38.8075 109.612 39.6441C108.77 40.352 107.605 40.6094 106.439 40.6094C105.403 40.6094 104.367 40.4164 103.655 40.0302L104.108 38.1639C104.626 38.4213 105.468 38.7431 106.375 38.7431C107.54 38.7431 108.382 38.1639 108.382 36.6837V36.1689C107.928 36.8124 107.151 37.1986 106.31 37.1986C104.367 37.1986 103.008 35.654 103.008 33.4015C103.008 30.8916 104.626 29.2827 106.569 29.2827C107.605 29.2827 108.317 29.7332 108.705 30.3768L108.77 29.4758H110.842C110.777 29.9906 110.777 30.6342 110.777 31.7926V36.1045Z" fill="#224CFF"/>
<path d="M119.716 35.5248C119.975 35.5892 120.234 35.5892 120.622 35.5892C121.723 35.5892 122.694 35.1387 122.694 34.0446C122.694 32.9506 121.723 32.5001 120.493 32.5001H119.716V35.5248ZM119.716 30.6981H120.493C121.788 30.6981 122.435 30.1833 122.435 29.3466C122.435 28.51 121.788 28.1239 120.687 28.1239C120.169 28.1239 119.845 28.1239 119.651 28.1882V30.6981H119.716ZM117.32 26.6437C117.968 26.5149 119.198 26.3862 120.428 26.3862C121.917 26.3862 122.824 26.5149 123.6 26.9654C124.377 27.3516 124.895 28.1239 124.895 29.0892C124.895 30.0545 124.313 30.8912 123.147 31.3417C124.377 31.6635 125.284 32.6288 125.284 33.9803C125.284 34.9456 124.831 35.7179 124.183 36.2328C123.406 36.8763 122.111 37.1981 119.975 37.1981C118.809 37.1981 117.903 37.1338 117.32 37.0694V26.6437Z" fill="#224CFF"/>
<path d="M127.416 31.9857C127.416 30.8273 127.416 30.055 127.352 29.4114H129.424L129.489 30.8916H129.553C129.942 29.7332 130.913 29.2827 131.625 29.2827C131.82 29.2827 131.949 29.2827 132.144 29.3471V31.5995C131.949 31.5995 131.755 31.5352 131.496 31.5352C130.589 31.5352 130.007 31.9857 129.812 32.758C129.748 32.8867 129.748 33.0797 129.748 33.2728V37.1986H127.352L127.416 31.9857Z" fill="#224CFF"/>
<path d="M137.641 35.6534C138.613 35.6534 139.195 34.6881 139.195 33.3366C139.195 32.1782 138.742 31.0198 137.641 31.0198C136.476 31.0198 136.023 32.1782 136.023 33.3366C136.023 34.6237 136.605 35.6534 137.641 35.6534ZM137.577 37.391C135.311 37.391 133.562 35.9108 133.562 33.3366C133.562 30.8267 135.246 29.2178 137.706 29.2178C140.102 29.2178 141.656 30.891 141.656 33.2079C141.72 36.1039 139.648 37.391 137.577 37.391Z" fill="#224CFF"/>
<path d="M146.453 27.2871V29.4109H148.202V31.2129H146.453V34.0445C146.453 35.0099 146.712 35.396 147.425 35.396C147.748 35.396 147.943 35.396 148.137 35.3317V37.198C147.813 37.3267 147.23 37.3911 146.583 37.3911C145.806 37.3911 145.158 37.1336 144.77 36.7475C144.316 36.297 144.122 35.5247 144.122 34.4307V31.2129H143.086V29.4109H144.122V27.9307L146.453 27.2871Z" fill="#224CFF"/>
<path d="M150.336 25.8716H152.731V30.3122C152.99 29.9904 153.314 29.6686 153.703 29.4755C154.091 29.2825 154.544 29.1538 154.933 29.1538C156.487 29.1538 157.652 30.2478 157.652 32.5647V37.1983H155.256V32.8864C155.256 31.8567 154.933 31.1488 154.026 31.1488C153.379 31.1488 152.99 31.5349 152.796 31.9854C152.731 32.1142 152.731 32.3072 152.731 32.5003V37.1983H150.336V25.8716Z" fill="#224CFF"/>
<path d="M164.908 32.4356C164.908 31.8564 164.649 30.8267 163.548 30.8267C162.512 30.8267 162.124 31.792 162.059 32.4356H164.908ZM162.059 34.0445C162.124 35.0742 163.095 35.5247 164.26 35.5247C165.102 35.5247 165.749 35.396 166.397 35.2029L166.721 36.8762C165.944 37.198 164.972 37.391 163.937 37.391C161.282 37.391 159.793 35.8465 159.793 33.4009C159.793 31.4059 161.023 29.2178 163.742 29.2178C166.267 29.2178 167.239 31.2128 167.239 33.1435C167.239 33.5297 167.174 33.9158 167.174 34.1089L162.059 34.0445Z" fill="#224CFF"/>
<path d="M169.244 31.9857C169.244 30.8273 169.244 30.055 169.18 29.4114H171.252L171.317 30.8916H171.381C171.77 29.7332 172.741 29.2827 173.454 29.2827C173.648 29.2827 173.777 29.2827 173.972 29.3471V31.5995C173.777 31.5995 173.583 31.5352 173.324 31.5352C172.418 31.5352 171.835 31.9857 171.64 32.758C171.64 32.8867 171.576 33.0797 171.576 33.2728V37.1986H169.18L169.244 31.9857Z" fill="#224CFF"/>
<path d="M175.912 35.1392C176.365 35.3966 177.272 35.7184 177.984 35.7184C178.696 35.7184 179.02 35.4609 179.02 35.0748C179.02 34.6887 178.761 34.4956 177.919 34.1738C176.301 33.659 175.653 32.758 175.718 31.857C175.718 30.3768 176.948 29.2827 178.891 29.2827C179.797 29.2827 180.574 29.4758 181.092 29.7332L180.704 31.4065C180.38 31.2134 179.668 30.956 179.02 30.956C178.437 30.956 178.114 31.2134 178.114 31.5995C178.114 31.9857 178.437 32.1788 179.344 32.5005C180.833 33.0154 181.416 33.7877 181.416 34.8817C181.416 36.3619 180.315 37.3916 178.049 37.3916C177.013 37.3916 176.106 37.1342 175.523 36.8124L175.912 35.1392Z" fill="#224CFF"/>
<path d="M189.767 35.5248C190.026 35.5892 190.285 35.5892 190.673 35.5892C191.774 35.5892 192.745 35.1387 192.745 34.0446C192.745 32.9506 191.774 32.5001 190.544 32.5001H189.702V35.5248H189.767ZM189.767 30.6981H190.544C191.838 30.6981 192.486 30.1833 192.486 29.3466C192.486 28.51 191.838 28.1239 190.738 28.1239C190.22 28.1239 189.896 28.1239 189.702 28.1882V30.6981H189.767ZM187.371 26.6437C188.019 26.5149 189.249 26.3862 190.479 26.3862C191.968 26.3862 192.874 26.5149 193.651 26.9654C194.428 27.3516 194.946 28.1239 194.946 29.0892C194.946 30.0545 194.363 30.8912 193.198 31.3417C194.428 31.6635 195.335 32.6288 195.335 33.9803C195.335 34.9456 194.881 35.7179 194.234 36.2328C193.457 36.8763 192.162 37.1981 190.026 37.1981C188.86 37.1981 187.954 37.1338 187.371 37.0694V26.6437Z" fill="#224CFF"/>
<path d="M197.469 29.4116H199.865V37.1987H197.469V29.4116ZM198.7 28.3819C197.858 28.3819 197.34 27.8027 197.34 27.0947C197.34 26.3868 197.858 25.8076 198.7 25.8076C199.542 25.8076 200.06 26.3868 200.06 27.0947C200.06 27.8027 199.542 28.3819 198.7 28.3819Z" fill="#224CFF"/>
<path d="M207.374 32.5649C207.374 32.4362 207.374 32.2431 207.309 32.1144C207.115 31.4708 206.662 31.0203 206.014 31.0203C205.108 31.0203 204.396 31.7926 204.396 33.2085C204.396 34.3669 204.978 35.2679 205.949 35.2679C206.597 35.2679 207.05 34.8817 207.244 34.3025C207.309 34.1094 207.309 33.852 207.309 33.659V32.5649H207.374ZM209.769 36.1045C209.769 37.5847 209.446 38.8075 208.604 39.6441C207.762 40.352 206.597 40.6094 205.431 40.6094C204.396 40.6094 203.36 40.4164 202.647 40.0302L203.101 38.1639C203.619 38.4213 204.46 38.7431 205.367 38.7431C206.532 38.7431 207.374 38.1639 207.374 36.6837V36.1689C206.921 36.8124 206.144 37.1986 205.302 37.1986C203.36 37.1986 202 35.654 202 33.4015C202 30.8916 203.619 29.2827 205.561 29.2827C206.597 29.2827 207.309 29.7332 207.697 30.3768L207.762 29.4758H209.834C209.769 29.9906 209.769 30.6342 209.769 31.7926V36.1045Z" fill="#224CFF"/>
<path d="M216.375 34.752C217.023 35.0738 218.058 35.3955 219.094 35.3955C220.195 35.3955 220.778 34.9451 220.778 34.2371C220.778 33.5936 220.26 33.2074 218.965 32.7569C217.152 32.1134 215.987 31.148 215.987 29.5391C215.987 27.6728 217.54 26.3213 220.065 26.3213C221.296 26.3213 222.137 26.5787 222.785 26.8361L222.267 28.7668C221.878 28.5738 221.101 28.252 220.065 28.252C219.03 28.252 218.512 28.7668 218.512 29.2817C218.512 29.9896 219.094 30.247 220.519 30.8262C222.396 31.5342 223.303 32.4995 223.303 34.0441C223.303 35.846 221.943 37.3906 218.965 37.3906C217.735 37.3906 216.505 37.0688 215.922 36.747L216.375 34.752Z" fill="#224CFF"/>
<path d="M225.308 29.4116H227.704V37.1987H225.308V29.4116ZM226.473 28.3819C225.631 28.3819 225.113 27.8027 225.113 27.0947C225.113 26.3868 225.631 25.8076 226.473 25.8076C227.315 25.8076 227.833 26.3868 227.833 27.0947C227.898 27.8027 227.38 28.3819 226.473 28.3819Z" fill="#224CFF"/>
<path d="M230.232 35.1392C230.686 35.3966 231.592 35.7184 232.304 35.7184C233.017 35.7184 233.341 35.4609 233.341 35.0748C233.341 34.6887 233.082 34.4956 232.24 34.1738C230.621 33.659 229.973 32.758 230.038 31.857C230.038 30.3768 231.268 29.2827 233.211 29.2827C234.118 29.2827 234.895 29.4758 235.413 29.7332L235.024 31.4065C234.7 31.2134 233.988 30.956 233.341 30.956C232.758 30.956 232.434 31.2134 232.434 31.5995C232.434 31.9857 232.758 32.1788 233.664 32.5005C235.154 33.0154 235.737 33.7877 235.737 34.8817C235.737 36.3619 234.636 37.3916 232.369 37.3916C231.333 37.3916 230.427 37.1342 229.844 36.8124L230.232 35.1392Z" fill="#224CFF"/>
<path d="M240.399 27.2871V29.4109H242.147V31.2129H240.399V34.0445C240.399 35.0099 240.658 35.396 241.37 35.396C241.694 35.396 241.888 35.396 242.082 35.3317V37.198C241.758 37.3267 241.176 37.3911 240.528 37.3911C239.751 37.3911 239.103 37.1336 238.715 36.7475C238.262 36.297 238.067 35.5247 238.067 34.4307V31.2129H237.031V29.4109H238.067V27.9307L240.399 27.2871Z" fill="#224CFF"/>
<path d="M248.81 32.4356C248.81 31.8564 248.551 30.8267 247.45 30.8267C246.415 30.8267 246.026 31.792 245.961 32.4356H248.81ZM245.961 34.0445C246.026 35.0742 246.997 35.5247 248.163 35.5247C249.004 35.5247 249.652 35.396 250.299 35.2029L250.623 36.8762C249.846 37.198 248.875 37.391 247.839 37.391C245.184 37.391 243.695 35.8465 243.695 33.4009C243.695 31.4059 244.925 29.2178 247.645 29.2178C250.17 29.2178 251.141 31.2128 251.141 33.1435C251.141 33.5297 251.076 33.9158 251.076 34.1089L245.961 34.0445Z" fill="#224CFF"/>
<path d="M253.151 31.9857C253.151 30.8273 253.151 30.055 253.086 29.4114H255.158L255.223 30.8916H255.288C255.676 29.7332 256.648 29.2827 257.36 29.2827C257.554 29.2827 257.684 29.2827 257.878 29.3471V31.5995C257.684 31.5995 257.489 31.5352 257.23 31.5352C256.324 31.5352 255.741 31.9857 255.547 32.758C255.547 32.8867 255.482 33.0797 255.482 33.2728V37.1986H253.086L253.151 31.9857Z" fill="#224CFF"/>
<path d="M259.752 35.1392C260.205 35.3966 261.112 35.7184 261.824 35.7184C262.536 35.7184 262.86 35.4609 262.86 35.0748C262.86 34.6887 262.601 34.4956 261.759 34.1738C260.14 33.659 259.493 32.758 259.558 31.857C259.558 30.3768 260.788 29.2827 262.731 29.2827C263.637 29.2827 264.414 29.4758 264.932 29.7332L264.544 31.4065C264.22 31.2134 263.508 30.956 262.86 30.956C262.277 30.956 261.954 31.2134 261.954 31.5995C261.954 31.9857 262.277 32.1788 263.184 32.5005C264.673 33.0154 265.256 33.7877 265.256 34.8817C265.256 36.3619 264.155 37.3916 261.889 37.3916C260.853 37.3916 259.946 37.1342 259.363 36.8124L259.752 35.1392Z" fill="#224CFF"/>
<path d="M274.772 35.6534C275.743 35.6534 276.326 34.6881 276.326 33.3366C276.326 32.1782 275.873 31.0198 274.772 31.0198C273.607 31.0198 273.153 32.1782 273.153 33.3366C273.218 34.6237 273.801 35.6534 274.772 35.6534ZM274.772 37.391C272.506 37.391 270.758 35.9108 270.758 33.3366C270.758 30.8267 272.441 29.2178 274.901 29.2178C277.297 29.2178 278.851 30.891 278.851 33.2079C278.851 36.1039 276.844 37.391 274.772 37.391Z" fill="#224CFF"/>
<path d="M281.247 37.1984V31.1489H280.211V29.3469H281.247V29.0251C281.247 28.0598 281.506 27.0301 282.218 26.3865C282.866 25.8073 283.643 25.6143 284.355 25.6143C284.873 25.6143 285.262 25.6786 285.65 25.743L285.586 27.6093C285.391 27.5449 285.132 27.4806 284.809 27.4806C284.032 27.4806 283.708 28.1242 283.708 28.8964V29.2826H285.262V31.0846H283.708V37.1984H281.247Z" fill="#224CFF"/>
<path d="M293.356 31.213H294.328C295.558 31.213 296.27 30.6338 296.27 29.6684C296.27 28.7031 295.623 28.1882 294.457 28.1882C293.874 28.1882 293.551 28.2526 293.356 28.2526V31.213ZM290.961 26.6437C291.738 26.5149 292.903 26.3862 294.198 26.3862C295.817 26.3862 296.917 26.6437 297.694 27.2229C298.342 27.7377 298.665 28.51 298.665 29.4753C298.665 30.8268 297.694 31.7922 296.788 32.114V32.1783C297.565 32.5001 297.953 33.208 298.212 34.1734C298.536 35.3961 298.86 36.812 299.054 37.1981H296.594C296.464 36.8763 296.14 36.0397 295.881 34.6882C295.558 33.3367 295.105 32.9506 294.133 32.9506H293.421V37.1981H291.026V26.6437H290.961Z" fill="#224CFF"/>
<path d="M308.186 34.6884C308.186 35.7181 308.186 36.5547 308.25 37.1983H306.178L306.049 36.1042H305.984C305.661 36.5547 304.948 37.3913 303.524 37.3913C301.905 37.3913 300.805 36.426 300.805 33.9804V29.4111H303.2V33.5943C303.2 34.7527 303.589 35.3963 304.43 35.3963C305.078 35.3963 305.466 34.9458 305.661 34.5596C305.725 34.4309 305.725 34.2379 305.725 34.0448V29.4111H308.121V34.6884H308.186Z" fill="#224CFF"/>
<path d="M310.709 35.1392C311.162 35.3966 312.069 35.7184 312.781 35.7184C313.493 35.7184 313.817 35.4609 313.817 35.0748C313.817 34.6887 313.558 34.4956 312.716 34.1738C311.097 33.659 310.45 32.758 310.515 31.857C310.515 30.3768 311.745 29.2827 313.688 29.2827C314.594 29.2827 315.371 29.4758 315.889 29.7332L315.501 31.4065C315.177 31.2134 314.465 30.956 313.817 30.956C313.234 30.956 312.911 31.2134 312.911 31.5995C312.911 31.9857 313.234 32.1788 314.141 32.5005C315.63 33.0154 316.213 33.7877 316.213 34.8817C316.213 36.3619 315.112 37.3916 312.846 37.3916C311.81 37.3916 310.903 37.1342 310.32 36.8124L310.709 35.1392Z" fill="#224CFF"/>
<path d="M318.088 35.1392C318.541 35.3966 319.448 35.7184 320.16 35.7184C320.872 35.7184 321.196 35.4609 321.196 35.0748C321.196 34.6887 320.937 34.4956 320.095 34.1738C318.476 33.659 317.829 32.758 317.894 31.857C317.894 30.3768 319.124 29.2827 321.067 29.2827C321.973 29.2827 322.75 29.4758 323.268 29.7332L322.88 31.4065C322.556 31.2134 321.844 30.956 321.196 30.956C320.613 30.956 320.289 31.2134 320.289 31.5995C320.289 31.9857 320.613 32.1788 321.52 32.5005C323.009 33.0154 323.592 33.7877 323.592 34.8817C323.592 36.3619 322.491 37.3916 320.225 37.3916C319.189 37.3916 318.282 37.1342 317.699 36.8124L318.088 35.1392Z" fill="#224CFF"/>
<path d="M325.598 29.4116H327.994V37.1987H325.598V29.4116ZM326.829 28.3819C325.987 28.3819 325.469 27.8027 325.469 27.0947C325.469 26.3868 325.987 25.8076 326.829 25.8076C327.67 25.8076 328.189 26.3868 328.189 27.0947C328.189 27.8027 327.67 28.3819 326.829 28.3819Z" fill="#224CFF"/>
<path d="M334.662 33.5302C333.367 33.5302 332.396 33.852 332.396 34.753C332.396 35.3966 332.785 35.654 333.367 35.654C333.95 35.654 334.468 35.2679 334.598 34.753C334.662 34.6243 334.662 34.4956 334.662 34.3669V33.5302ZM336.994 35.3322C336.994 36.0401 336.994 36.8124 337.123 37.1986H334.922L334.792 36.4263H334.727C334.209 37.0698 333.432 37.3916 332.526 37.3916C330.971 37.3916 330 36.2332 330 35.0104C330 33.0154 331.813 32.05 334.598 32.05V31.9857C334.598 31.5995 334.403 30.956 333.173 30.956C332.396 30.956 331.554 31.2134 331.036 31.5352L330.583 29.9906C331.101 29.6689 332.202 29.2827 333.626 29.2827C336.217 29.2827 337.058 30.8273 337.058 32.6292V35.3322H336.994Z" fill="#224CFF"/>
<path d="M95.6275 55.2823C95.1096 55.5397 94.1384 55.7971 92.9083 55.7971C90.448 55.7971 88.1172 54.2526 88.1172 50.5843C88.1172 47.5595 90.0595 45.2427 93.2967 45.2427C94.5916 45.2427 95.3685 45.5001 95.6275 45.6932L95.3685 46.2724C94.8506 46.015 94.1384 45.8219 93.232 45.8219C90.5127 45.8219 88.8294 47.6239 88.8294 50.5843C88.8294 53.3516 90.3832 55.1536 93.1672 55.1536C94.0089 55.1536 94.8506 54.9605 95.4333 54.7031L95.6275 55.2823Z" fill="#224CFF"/>
<path d="M101.326 48.332V48.9756H98.995V55.6043H98.2827V48.9756H95.8867V48.332H101.326Z" fill="#224CFF"/>
<path d="M106.964 51.7427C105.345 51.6784 103.273 51.9358 103.273 53.6734C103.273 54.7031 103.985 55.218 104.697 55.218C105.928 55.218 106.575 54.4457 106.834 53.7378C106.899 53.6091 106.899 53.416 106.899 53.2873V51.7427H106.964ZM107.741 53.8665C107.741 54.4457 107.741 55.0249 107.87 55.6041H107.223L107.093 54.5744C106.705 55.1536 105.928 55.7972 104.762 55.7972C103.273 55.7972 102.625 54.7675 102.625 53.8021C102.625 52.1289 104.114 51.0992 107.028 51.1635V50.9705C107.028 50.2625 106.899 48.8467 105.15 48.8467C104.503 48.8467 103.855 49.0398 103.337 49.3615L103.143 48.8467C103.791 48.3962 104.632 48.2031 105.28 48.2031C107.352 48.2031 107.806 49.7477 107.806 51.0992V53.8665H107.741Z" fill="#224CFF"/>
<path d="M111.043 52.7728C111.043 52.9659 111.043 53.159 111.107 53.352C111.431 54.4461 112.403 55.2184 113.503 55.2184C115.187 55.2184 116.094 53.8669 116.094 51.9362C116.094 50.3273 115.187 48.8471 113.568 48.8471C112.532 48.8471 111.496 49.555 111.172 50.7778C111.107 50.9708 111.043 51.2283 111.043 51.4213V52.7728ZM110.33 50.6491C110.33 49.7481 110.33 49.0402 110.266 48.3322H110.978L111.043 49.6837C111.561 48.7184 112.467 48.1392 113.762 48.1392C115.64 48.1392 116.871 49.6837 116.871 51.8075C116.871 54.3817 115.317 55.7332 113.568 55.7332C112.532 55.7332 111.626 55.2827 111.107 54.3817V58.5649H110.395V50.6491H110.33Z" fill="#224CFF"/>
<path d="M119.775 48.332V55.0251H122.753V48.332H123.53V55.0251H126.443V48.332H127.22V55.6043H119.062V48.332H119.775Z" fill="#224CFF"/>
<path d="M130.59 48.332V51.936C130.59 53.0944 130.59 53.738 130.525 54.832C131.043 53.931 131.302 53.4162 131.885 52.5152L134.669 48.332H135.446V55.6043H134.734V52.0003C134.734 50.7776 134.734 50.0697 134.799 49.1043C134.216 50.134 133.827 50.7776 133.309 51.5499C132.468 52.7726 131.496 54.1885 130.59 55.6043H129.812V48.332H130.59Z" fill="#224CFF"/>
<path d="M143.019 51.3561C143.019 50.3264 142.63 48.7818 140.882 48.7818C139.263 48.7818 138.615 50.1977 138.486 51.3561H143.019ZM138.421 51.9353C138.421 54.2521 139.716 55.1531 141.206 55.1531C142.242 55.1531 142.824 54.9601 143.213 54.767L143.407 55.3462C143.148 55.4749 142.371 55.7967 141.141 55.7967C139.069 55.7967 137.773 54.2521 137.773 52.1284C137.773 49.6828 139.133 48.2026 141.011 48.2026C143.407 48.2026 143.861 50.4551 143.861 51.4848C143.861 51.6779 143.861 51.8066 143.861 51.9353H138.421Z" fill="#224CFF"/>
<path d="M150.853 55.0246C151.177 55.0889 151.565 55.0889 152.083 55.0889C153.055 55.0889 154.026 54.7671 154.609 54.1236C154.997 53.6731 155.192 53.1582 155.192 52.3859C155.192 51.4206 154.803 50.777 154.156 50.3909C153.573 50.0048 152.796 49.876 151.954 49.876C151.63 49.876 151.112 49.876 150.788 49.9404V55.0246H150.853ZM155.256 45.3711V45.9503H150.918V49.3612C151.241 49.2968 151.889 49.2968 152.213 49.2968C153.119 49.2968 154.026 49.4899 154.674 49.876C155.515 50.3265 156.033 51.1632 156.033 52.3859C156.033 53.3513 155.71 53.9949 155.256 54.5097C154.479 55.282 153.249 55.6038 151.954 55.6038C151.177 55.6038 150.594 55.5394 150.141 55.5394V45.3711H155.256Z" fill="#224CFF"/>
<path d="M158.816 52.7718C158.816 52.9649 158.816 53.158 158.881 53.3511C159.205 54.4451 160.176 55.2174 161.277 55.2174C162.961 55.2174 163.867 53.8659 163.867 51.9352C163.867 50.3263 162.961 48.8461 161.342 48.8461C160.306 48.8461 159.269 49.554 158.946 50.7768C158.881 50.9699 158.816 51.2273 158.816 51.4204V52.7718ZM158.104 50.6481C158.104 49.7471 158.104 49.0392 158.039 48.3313H158.751L158.816 49.6827C159.334 48.7174 160.241 48.1382 161.536 48.1382C163.414 48.1382 164.644 49.6827 164.644 51.8065C164.644 54.3808 163.09 55.7322 161.342 55.7322C160.306 55.7322 159.399 55.2817 158.881 54.3808V58.5639H158.169V50.6481H158.104Z" fill="#224CFF"/>
<path d="M170.732 51.7422C169.177 51.6779 167.04 51.9353 167.04 53.6729C167.04 54.7026 167.753 55.2175 168.465 55.2175C169.695 55.2175 170.343 54.4452 170.602 53.7373C170.667 53.6086 170.667 53.4155 170.667 53.2868V51.7422H170.732ZM171.444 53.866C171.444 54.4452 171.444 55.0244 171.573 55.6036H170.926L170.796 54.5739C170.408 55.1531 169.631 55.7967 168.465 55.7967C166.976 55.7967 166.328 54.767 166.328 53.8016C166.328 52.1284 167.818 51.0987 170.732 51.163V50.97C170.732 50.262 170.602 48.8462 168.854 48.8462C168.206 48.8462 167.559 49.0393 167.04 49.3611L166.781 48.8462C167.429 48.3957 168.271 48.2026 168.918 48.2026C170.991 48.2026 171.444 49.7472 171.444 51.0987V53.866Z" fill="#224CFF"/>
<path d="M178.369 48.332V48.9756H176.038V55.6043H175.326V48.9756H172.93V48.332H178.369Z" fill="#224CFF"/>
<path d="M180.896 55.0895C181.22 55.0895 181.543 55.1538 181.997 55.1538C183.162 55.1538 184.652 54.7677 184.652 53.3518C184.652 51.8716 183.098 51.5499 181.932 51.5499C181.543 51.5499 181.22 51.5499 180.831 51.6142V55.0895H180.896ZM180.896 48.332V50.9706C181.22 50.9063 181.738 50.9063 182.126 50.9063C183.745 50.9063 185.429 51.4211 185.429 53.3518C185.429 53.9954 185.17 54.4459 184.846 54.832C184.134 55.54 182.903 55.6687 181.867 55.6687C181.22 55.6687 180.637 55.6043 180.184 55.6043V48.332H180.896Z" fill="#224CFF"/>
<path d="M191.45 48.9116C191.062 48.8473 190.673 48.8473 190.155 48.8473C189.184 48.8473 187.824 49.1047 187.824 50.3275C187.824 51.4215 189.249 51.8077 190.091 51.8077H191.45V48.9116ZM192.163 55.6047H191.45V52.3225H190.155C189.573 52.3225 189.184 52.4512 188.86 52.6443C188.213 53.0948 188.018 54.1889 187.695 54.9611C187.565 55.2186 187.5 55.4116 187.371 55.5403H186.594C186.723 55.2829 186.918 55.0255 187.047 54.7037C187.436 53.9314 187.5 52.9661 188.277 52.3869C188.472 52.2582 188.731 52.1295 189.055 52.0651C188.018 51.9364 187.112 51.3572 187.112 50.2631C187.112 49.6196 187.436 49.1047 187.889 48.7829C188.472 48.3968 189.249 48.2681 190.155 48.2681C190.868 48.2681 191.58 48.3324 192.228 48.3968V55.6047H192.163Z" fill="#224CFF"/>
<path d="M206.018 55.2823C205.5 55.5397 204.529 55.7971 203.299 55.7971C200.839 55.7971 198.508 54.2526 198.508 50.5843C198.508 47.5595 200.45 45.2427 203.687 45.2427C204.982 45.2427 205.759 45.5001 206.018 45.6932L205.759 46.2724C205.241 46.015 204.529 45.8219 203.623 45.8219C200.903 45.8219 199.22 47.6239 199.22 50.5843C199.22 53.3516 200.774 55.1536 203.558 55.1536C204.4 55.1536 205.241 54.9605 205.824 54.7031L206.018 55.2823Z" fill="#224CFF"/>
<path d="M211.65 48.332V48.9756H209.319V55.6043H208.607V48.9756H206.211V48.332H211.65Z" fill="#224CFF"/>
<path d="M217.349 51.7427C215.73 51.6784 213.658 51.9358 213.658 53.6734C213.658 54.7031 214.37 55.218 215.082 55.218C216.313 55.218 216.96 54.4457 217.219 53.7378C217.284 53.6091 217.284 53.416 217.284 53.2873V51.7427H217.349ZM218.061 53.8665C218.061 54.4457 218.061 55.0249 218.191 55.6041H217.543L217.414 54.5744C217.025 55.1536 216.248 55.7972 215.082 55.7972C213.593 55.7972 212.945 54.7675 212.945 53.8021C212.945 52.1289 214.435 51.0992 217.349 51.1635V50.9705C217.349 50.2625 217.219 48.8467 215.471 48.8467C214.823 48.8467 214.176 49.0398 213.658 49.3615L213.399 48.8467C214.046 48.3962 214.888 48.2031 215.536 48.2031C217.608 48.2031 218.061 49.7477 218.061 51.0992V53.8665Z" fill="#224CFF"/>
<path d="M221.428 52.7718C221.428 52.9649 221.428 53.158 221.493 53.3511C221.816 54.4451 222.788 55.2174 223.889 55.2174C225.572 55.2174 226.479 53.8659 226.479 51.9352C226.479 50.3263 225.572 48.8461 223.953 48.8461C222.917 48.8461 221.881 49.554 221.557 50.7768C221.493 50.9699 221.428 51.2273 221.428 51.4204V52.7718ZM220.651 50.6481C220.651 49.7471 220.651 49.0392 220.586 48.3313H221.298L221.363 49.6827C221.881 48.7174 222.788 48.1382 224.083 48.1382C225.961 48.1382 227.191 49.6827 227.191 51.8065C227.191 54.3808 225.637 55.7322 223.889 55.7322C222.852 55.7322 221.946 55.2817 221.428 54.3808V58.5639H220.715V50.6481H220.651Z" fill="#224CFF"/>
<path d="M230.168 48.332V55.0251H233.146V48.332H233.858V55.0251H236.836V48.332H237.548V55.6043H229.391V48.332H230.168Z" fill="#224CFF"/>
<path d="M240.914 48.332V51.936C240.914 53.0944 240.914 53.738 240.849 54.832C241.367 53.931 241.626 53.4162 242.209 52.5152L244.993 48.332H245.771V55.6043H245.058V52.0003C245.058 50.7776 245.058 50.0697 245.123 49.1043C244.54 50.134 244.152 50.7776 243.634 51.5499C242.792 52.7726 241.82 54.1885 240.914 55.6043H240.137V48.332H240.914Z" fill="#224CFF"/>
<path d="M253.347 51.3571C253.347 50.3274 252.958 48.7828 251.21 48.7828C249.591 48.7828 248.943 50.1987 248.814 51.3571H253.347ZM248.749 51.9363C248.749 54.2531 250.044 55.1541 251.534 55.1541C252.57 55.1541 253.153 54.961 253.541 54.768L253.735 55.3472C253.476 55.4759 252.699 55.7977 251.469 55.7977C249.397 55.7977 248.102 54.2531 248.102 52.1294C248.102 49.6838 249.461 48.2036 251.339 48.2036C253.735 48.2036 254.189 50.4561 254.189 51.4858C254.189 51.6789 254.189 51.8076 254.189 51.9363H248.749Z" fill="#224CFF"/>
<path d="M267.393 55.2823C266.875 55.5397 265.904 55.7971 264.674 55.7971C262.214 55.7971 259.883 54.2526 259.883 50.5843C259.883 47.5595 261.825 45.2427 265.062 45.2427C266.357 45.2427 267.134 45.5001 267.393 45.6932L267.134 46.2724C266.616 46.015 265.904 45.8219 264.998 45.8219C262.278 45.8219 260.595 47.6239 260.595 50.5843C260.595 53.3516 262.149 55.1536 264.933 55.1536C265.775 55.1536 266.616 54.9605 267.199 54.7031L267.393 55.2823Z" fill="#224CFF"/>
<path d="M274.001 51.3571C274.001 50.3274 273.613 48.7828 271.864 48.7828C270.246 48.7828 269.598 50.1987 269.468 51.3571H274.001ZM269.339 51.9363C269.339 54.2531 270.634 55.1541 272.123 55.1541C273.16 55.1541 273.742 54.961 274.131 54.768L274.325 55.3472C274.066 55.4759 273.289 55.7977 272.059 55.7977C269.987 55.7977 268.691 54.2531 268.691 52.1294C268.691 49.6838 270.051 48.2036 271.929 48.2036C274.325 48.2036 274.779 50.4561 274.779 51.4858C274.779 51.6789 274.779 51.8076 274.779 51.9363H269.339Z" fill="#224CFF"/>
<path d="M282.087 55.2822C281.763 55.4109 280.986 55.7327 279.95 55.7327C277.878 55.7327 276.453 54.1882 276.453 52.0001C276.453 49.6832 278.007 48.1387 280.209 48.1387C281.116 48.1387 281.828 48.3961 282.087 48.5892L281.828 49.1684C281.504 48.9753 280.921 48.7179 280.144 48.7179C278.202 48.7179 277.23 50.1981 277.23 51.9357C277.23 53.8664 278.396 55.0892 280.079 55.0892C280.921 55.0892 281.504 54.8317 281.893 54.6387L282.087 55.2822Z" fill="#224CFF"/>
<path d="M289.018 48.332V48.9756H286.622V55.6043H285.909V48.9756H283.578V48.332H289.018Z" fill="#224CFF"/>
<path d="M291.543 52.7718C291.543 52.9649 291.543 53.158 291.607 53.3511C291.931 54.4451 292.903 55.2174 294.003 55.2174C295.687 55.2174 296.594 53.8659 296.594 51.9352C296.594 50.3263 295.687 48.8461 294.068 48.8461C293.032 48.8461 291.996 49.554 291.672 50.7768C291.607 50.9699 291.543 51.2273 291.543 51.4204V52.7718ZM290.83 50.6481C290.83 49.7471 290.83 49.0392 290.766 48.3313H291.478L291.543 49.6827C292.061 48.7174 292.967 48.1382 294.262 48.1382C296.14 48.1382 297.371 49.6827 297.371 51.8065C297.371 54.3808 295.817 55.7322 294.068 55.7322C293.032 55.7322 292.126 55.2817 291.607 54.3808V58.5639H290.895V50.6481H290.83Z" fill="#224CFF"/>
<path d="M306.242 55.6038H305.53V48.3315H306.242V55.6038ZM300.285 55.0246C300.609 55.089 300.932 55.089 301.321 55.089C302.487 55.089 303.782 54.5741 303.782 53.287C303.782 51.8711 302.551 51.485 301.386 51.485C300.997 51.485 300.609 51.485 300.285 51.5494V55.0246ZM300.285 48.3315V50.9702C300.544 50.9058 300.997 50.9058 301.451 50.9058C303.005 50.9058 304.494 51.5494 304.494 53.287C304.494 53.9306 304.235 54.4454 303.911 54.8315C303.199 55.5395 302.098 55.6682 301.191 55.6682C300.544 55.6682 299.961 55.6038 299.508 55.6038V48.3315H300.285Z" fill="#224CFF"/>
<path d="M313.876 50.5834C314.2 50.7121 314.653 50.7121 315.172 50.7121C316.985 50.7121 318.086 49.8111 318.086 48.2022C318.086 46.5933 316.92 45.8854 315.301 45.8854C314.653 45.8854 314.135 45.9497 313.876 46.0141V50.5834ZM313.164 45.4992C313.747 45.3705 314.524 45.3062 315.366 45.3062C316.596 45.3062 317.503 45.6279 318.086 46.1428C318.604 46.5933 318.863 47.3012 318.863 48.1378C318.863 49.0388 318.604 49.6824 318.15 50.1972C317.503 50.9695 316.402 51.3557 315.172 51.3557C314.718 51.3557 314.265 51.3557 313.941 51.2269V55.6032H313.229V45.4992H313.164Z" fill="#224CFF"/>
<path d="M323.594 55.1526C325.083 55.1526 326.314 53.8012 326.314 51.9348C326.314 50.5833 325.601 48.7814 323.659 48.7814C321.781 48.7814 320.939 50.4546 320.939 51.9992C320.939 53.8012 322.104 55.1526 323.594 55.1526ZM323.529 55.7962C321.651 55.7962 320.227 54.316 320.227 52.0635C320.227 49.5536 321.845 48.2021 323.659 48.2021C325.666 48.2021 327.026 49.7467 327.026 51.9348C327.026 54.6378 325.148 55.7962 323.529 55.7962Z" fill="#224CFF"/>
<path d="M334.345 55.2813C334.021 55.41 333.244 55.7318 332.208 55.7318C330.136 55.7318 328.711 54.1872 328.711 51.9991C328.711 49.6822 330.265 48.1377 332.467 48.1377C333.373 48.1377 334.086 48.3951 334.345 48.5882L334.086 49.1674C333.762 48.9743 333.179 48.7169 332.402 48.7169C330.459 48.7169 329.488 50.1971 329.488 51.9347C329.488 53.8654 330.654 55.0882 332.337 55.0882C333.179 55.0882 333.762 54.8308 334.15 54.6377L334.345 55.2813Z" fill="#224CFF"/>
<path d="M341.138 55.2813C340.814 55.41 340.037 55.7318 339.001 55.7318C336.929 55.7318 335.504 54.1872 335.504 51.9991C335.504 49.6822 337.058 48.1377 339.26 48.1377C340.166 48.1377 340.879 48.3951 341.138 48.5882L340.879 49.1674C340.555 48.9743 339.972 48.7169 339.195 48.7169C337.252 48.7169 336.281 50.1971 336.281 51.9347C336.281 53.8654 337.447 55.0882 339.13 55.0882C339.972 55.0882 340.555 54.8308 340.943 54.6377L341.138 55.2813Z" fill="#224CFF"/>
<path d="M343.863 48.3315V51.9355C343.863 53.0939 343.863 53.7375 343.798 54.8315C344.316 53.9306 344.575 53.4157 345.158 52.5147L347.943 48.3315H348.72V55.6038H348.007V51.9999C348.007 50.7771 348.007 50.0692 348.072 49.1038C347.489 50.1335 347.101 50.7771 346.583 51.5494C345.741 52.7721 344.77 54.188 343.863 55.6038H343.086V48.3315H343.863Z" fill="#224CFF"/>
<path d="M352.144 48.3315V51.9355C352.144 53.0939 352.144 53.7375 352.08 54.8315C352.598 53.9306 352.857 53.4157 353.439 52.5147L356.224 48.3315H357.001V55.6038H356.289V51.9999C356.289 50.7771 356.289 50.0692 356.353 49.1038C355.771 50.1335 355.382 50.7771 354.864 51.5494C354.022 52.7721 353.051 54.188 352.144 55.6038H351.367V48.3315H352.144Z" fill="#224CFF"/>
</svg>
